<?xml version="1.0" encoding="UTF-8" standalone="no"?>
<!-- Created with Inkscape (http://www.inkscape.org/) -->

<svg
   xmlns:dc="http://purl.org/dc/elements/1.1/"
   xmlns:cc="http://creativecommons.org/ns#"
   xmlns:rdf="http://www.w3.org/1999/02/22-rdf-syntax-ns#"
   xmlns:svg="http://www.w3.org/2000/svg"
   xmlns="http://www.w3.org/2000/svg"
   xmlns:xlink="http://www.w3.org/1999/xlink"
   xmlns:sodipodi="http://sodipodi.sourceforge.net/DTD/sodipodi-0.dtd"
   xmlns:inkscape="http://www.inkscape.org/namespaces/inkscape"
   width="210mm"
   height="297mm"
   id="svg2"
   version="1.1"
   inkscape:version="0.48.0 r9654"
   inkscape:export-filename="/home/fitorec/codes/mygit/intro_a_inkscape/ejemplos/img-prueba-hm.png"
   inkscape:export-xdpi="179.43425"
   inkscape:export-ydpi="179.43425"
   sodipodi:docname="Nuevo documento 1">
  <defs
     id="defs4">
    <filter
       inkscape:collect="always"
       id="filter3924"
       x="-0.140246"
       width="1.280492"
       y="-0.3745779"
       height="1.7491558">
      <feGaussianBlur
         inkscape:collect="always"
         stdDeviation="4.2899181"
         id="feGaussianBlur3926" />
    </filter>
    <filter
       inkscape:collect="always"
       id="filter3932"
       x="-0.11193346"
       width="1.2238669"
       y="-0.27546511"
       height="1.5509302">
      <feGaussianBlur
         inkscape:collect="always"
         stdDeviation="4.7622163"
         id="feGaussianBlur3934" />
    </filter>
    <filter
       inkscape:collect="always"
       id="filter3954"
       x="-0.33599652"
       width="1.671993"
       y="-0.60737836"
       height="2.2147567">
      <feGaussianBlur
         inkscape:collect="always"
         stdDeviation="0.58749394"
         id="feGaussianBlur3956" />
    </filter>
    <filter
       inkscape:collect="always"
       id="filter3965">
      <feGaussianBlur
         inkscape:collect="always"
         stdDeviation="0.88729408"
         id="feGaussianBlur3967" />
    </filter>
  </defs>
  <sodipodi:namedview
     id="base"
     pagecolor="#ffffff"
     bordercolor="#666666"
     borderopacity="1.0"
     inkscape:pageopacity="0.0"
     inkscape:pageshadow="2"
     inkscape:zoom="0.768441"
     inkscape:cx="261.72502"
     inkscape:cy="440.12596"
     inkscape:document-units="px"
     inkscape:current-layer="layer1"
     showgrid="false"
     inkscape:window-width="1024"
     inkscape:window-height="741"
     inkscape:window-x="1366"
     inkscape:window-y="0"
     inkscape:window-maximized="1" />
  <metadata
     id="metadata7">
    <rdf:RDF>
      <cc:Work
         rdf:about="">
        <dc:format>image/svg+xml</dc:format>
        <dc:type
           rdf:resource="http://purl.org/dc/dcmitype/StillImage" />
        <dc:title></dc:title>
      </cc:Work>
    </rdf:RDF>
  </metadata>
  <g
     inkscape:label="Capa 1"
     inkscape:groupmode="layer"
     id="layer1">
    <g
       id="g3984"
       inkscape:export-filename="/home/fitorec/codes/mygit/intro_a_inkscape/ejemplos/img-prueba-hm.png"
       inkscape:export-xdpi="179.43425"
       inkscape:export-ydpi="179.43425">
      <path
         inkscape:connector-curvature="0"
         id="path3946"
         d="m 357.41072,501.73718 -1.875,4.91072 -3.21429,-1.875 z"
         style="fill:#999999;stroke:#000000;stroke-width:1px;stroke-linecap:butt;stroke-linejoin:miter;stroke-opacity:1" />
      <path
         d="m 361.12953,525.56763 a 43.941635,17.67767 0 1 1 -87.88327,0 43.941635,17.67767 0 1 1 87.88327,0 z"
         sodipodi:ry="17.67767"
         sodipodi:rx="43.941635"
         sodipodi:cy="525.56763"
         sodipodi:cx="317.1879"
         id="path3083"
         style="fill:#000000;fill-opacity:1;stroke:none"
         sodipodi:type="arc" />
      <path
         sodipodi:nodetypes="ccsccscscscsscssccccccccccscscssscsccccccccc"
         inkscape:connector-curvature="0"
         id="path3037"
         d="m 260.11428,540.71992 -12.12183,45.96194 c 0,0 -12.34019,27.86133 -16.66752,42.42641 -6.41328,21.58601 -13.63706,66.16499 -13.63706,66.16499 l -1.51523,26.76904 c 0,0 8.29108,4.66517 12.12184,3.03046 1.24843,-0.53275 2.0203,-3.53554 2.0203,-3.53554 0,0 3.00167,7.5985 6.06092,7.07107 2.31087,-0.39841 2.52538,-6.56599 2.52538,-6.56599 0,0 6.05676,6.05259 9.09137,4.54569 2.4547,-1.21893 1.51523,-8.08122 1.51523,-8.08122 0,0 8.11497,2.21885 10.10152,-0.50508 3.08011,-4.22341 -1.38542,-10.6496 -4.04061,-15.15229 -3.08457,-5.23085 -13.13198,-12.62691 -13.13198,-12.62691 0,0 13.20733,-32.3555 19.1929,-52.52793 6.19843,-20.88981 6.06091,-52.52793 7.07107,-47.47717 1.01016,5.05077 2.52538,72.73099 2.52538,72.73099 l 36.36549,38.38579 54.54824,-25.25381 -8.5863,-61.11423 10.10153,-58.08377 30.30457,32.82996 4.54569,15.15228 c -11.71878,14.63578 -20.68118,24.34037 -26.76904,47.98225 l -21.21321,-1.51523 -12.12183,12.12183 c 0,0 0.97801,6.43584 3.53554,7.07107 4.21671,1.04733 10.6066,-7.57614 10.6066,-7.57614 0,0 -9.98869,7.83114 -7.07107,11.11167 3.60299,4.05116 14.64721,-7.07106 14.64721,-7.07106 0,0 -8.77434,10.5334 -5.05076,13.63706 4.81292,4.01164 11.04919,-13.21751 16.16244,-9.59645 4.90407,3.47293 -9.08736,15.37803 -3.53553,17.67767 5.60819,2.32299 10.10152,-15.15229 10.10152,-15.15229 0,0 7.95251,7.14888 11.61676,5.05076 4.85669,-2.7809 2.0203,-16.66752 2.0203,-16.66752 l 37.37565,-44.44671 10.6066,-29.29442 C 410.51984,572.69601 402.69329,559.5619 383.35289,534.15393 l -52.52793,-6.06092 -16.66752,-27.77919 -22.72843,6.06091 3.03045,27.7792 z"
         style="fill:#deaa87;stroke:#000000;stroke-width:1px;stroke-linecap:butt;stroke-linejoin:miter;stroke-opacity:1" />
      <path
         inkscape:connector-curvature="0"
         id="path3942"
         d="m 309.46429,653.25504 c -0.29762,-0.0595 -0.59658,-0.24442 -0.89286,-0.17858 -0.29053,0.0646 -0.47359,0.36067 -0.71429,0.53572 -0.4141,0.30117 -0.85911,0.56211 -1.25,0.89286 -0.38556,0.32625 -0.69132,0.73883 -1.07143,1.07142 -0.70105,0.61342 -0.1549,-0.63467 -1.07142,0.89286 -0.0433,0.0722 0.11904,0.11905 0.17857,0.17857 0.11905,0.11905 0.26375,0.21706 0.35714,0.35715 0.0518,0.0778 -0.0471,0.44145 0,0.53571 0.13138,0.26275 0.28019,0.17857 0.53571,0.17857 0.65477,0 1.30953,0 1.96429,0 0.0934,0 0.66733,0.0235 0.71429,0 0.0954,-0.0477 0.4417,-0.4417 0.53571,-0.53571 0.10503,-0.10503 0.67294,-0.6316 0.71429,-0.71429 0.0266,-0.0532 0,-0.11905 0,-0.17857 0,-0.69061 -0.0666,-0.27842 -0.35715,-0.71429 -0.64737,-1.29474 0.18823,0.28235 -0.35714,-0.53571 -0.0738,-0.11074 -0.10474,-0.2464 -0.17857,-0.35714 -0.0467,-0.07 -0.14093,-0.10328 -0.17857,-0.17857 -0.0266,-0.0532 0.0266,-0.12534 0,-0.17858 -0.0376,-0.0753 -0.11905,-0.11904 -0.17857,-0.17857 -0.0595,-0.0595 -0.10328,-0.14092 -0.17858,-0.17857 -0.0543,-0.0272 -0.45529,0 -0.53571,0 -0.0443,0 -0.6996,-0.01 -0.71429,0 -0.14008,0.0934 -0.23809,0.2381 -0.35714,0.35714 -0.0595,0.0595 -0.11905,0.2381 -0.17857,0.17858 -0.26275,-0.26275 0.28741,-0.64455 0.35714,-0.71429 0.11905,-0.11905 0.2381,-0.23809 0.35715,-0.35714 0.28561,-0.28562 0.50965,-0.52269 0.89285,-0.71429 0.0532,-0.0266 0.12534,0.0266 0.17857,0 0.13641,-0.0682 0.4148,-0.49541 0.53572,-0.53571 0.48774,-0.16258 0.24014,0.0308 0.53571,0.17857 0.0532,0.0266 0.11905,0 0.17857,0 0.11905,0 0.2381,0 0.35715,0 0.35714,0 0.71428,0 1.07143,0"
         style="fill:#000000;stroke:#000000;stroke-width:1px;stroke-linecap:butt;stroke-linejoin:miter;stroke-opacity:1" />
      <path
         sodipodi:nodetypes="ccccccccc"
         inkscape:connector-curvature="0"
         id="path3039"
         d="m 339.41126,522.0321 c -22.81499,12.1862 -33.88565,11.3093 -57.5787,5.05076 l -15.65736,30.30458 1.51522,87.88327 c 33.4059,11.39616 54.39435,8.15176 88.89343,6.06091 l -5.55584,-54.54824 14.14214,-61.6193 -11.61676,-9.59645 z"
         style="fill:#ff00cc;stroke:#000000;stroke-width:1px;stroke-linecap:butt;stroke-linejoin:miter;stroke-opacity:1" />
      <g
         id="g3045">
        <path
           style="fill:#cccccc;stroke:#000000;stroke-width:1px;stroke-linecap:butt;stroke-linejoin:miter;stroke-opacity:1"
           d="m 227.7894,560.92297 c -2.02031,-4.04061 -17.67767,-27.7792 -17.67767,-27.7792 l 34.85026,12.62691 -14.64721,-35.35534 32.32488,21.71828 -18.18274,22.22336 z"
           id="path3043"
           inkscape:connector-curvature="0" />
        <path
           style="fill:#b3b3b3;stroke:#000000;stroke-width:1px;stroke-linecap:butt;stroke-linejoin:miter;stroke-opacity:1"
           d="m 288.90363,526.07271 c -43.9889,0.0304 -48.41938,5.96144 -66.16499,42.93148 19.38703,-11.4706 27.62058,-11.32598 47.47717,-4.54569 z"
           id="path3041"
           inkscape:connector-curvature="0"
           sodipodi:nodetypes="cccc" />
      </g>
      <g
         style="fill:#333333"
         id="g3053">
        <path
           style="fill:#333333;stroke:#000000;stroke-width:1px;stroke-linecap:butt;stroke-linejoin:miter;stroke-opacity:1"
           d="m 295.9747,524.0524 -21.21321,3.53554 -15.15229,57.07361 -3.03045,52.52794 c 0,0 27.27412,4.04061 26.76904,0.50507 -0.50508,-3.53553 4.04061,-68.69037 4.04061,-68.69037 z"
           id="path3049"
           inkscape:connector-curvature="0" />
        <path
           style="fill:#333333;stroke:#000000;stroke-width:1px;stroke-linecap:butt;stroke-linejoin:miter;stroke-opacity:1"
           d="m 335.87572,522.0321 32.32488,13.13198 c -6.87922,21.38673 -6.25373,22.90305 -1.51523,43.43656 -11.96579,24.22771 -7.45777,33.49443 3.03046,56.56854 -22.11584,-0.65435 -32.46251,1.18509 -52.02285,8.5863 -0.0462,-44.68414 7.0835,-79.54628 18.18274,-121.72338 z"
           id="path3051"
           inkscape:connector-curvature="0"
           sodipodi:nodetypes="cccccc" />
      </g>
      <path
         sodipodi:nodetypes="csccsc"
         inkscape:connector-curvature="0"
         id="path3057"
         d="m 296.98485,517.99149 c 0,0 -30.30458,12.6269 -28.78935,16.16244 1.51523,3.53553 21.2132,25.75889 21.2132,25.75889 l -23.73858,13.63706 c 0,0 16.66751,31.81979 18.68782,28.78934 2.02031,-3.03045 18.94421,-79.29389 12.62691,-84.34773 z"
         style="fill:#000000;stroke:#000000;stroke-width:1px;stroke-linecap:butt;stroke-linejoin:miter;stroke-opacity:1" />
      <path
         inkscape:connector-curvature="0"
         id="path3059"
         d="m 337.39095,513.4458 c 2.02031,0 20.70813,3.53553 20.70813,3.53553 l 9.59645,6.56599 -24.74874,21.21321 12.62691,18.68782 -29.29443,37.88072 0.50508,-56.56854 13.13198,-31.81981 0,0"
         style="fill:#000000;stroke:#000000;stroke-width:1px;stroke-linecap:butt;stroke-linejoin:miter;stroke-opacity:1" />
      <path
         inkscape:connector-curvature="0"
         id="path3061"
         d="m 213.64726,644.76563 c 0.67344,-0.16836 1.34687,-0.33672 0,0 z"
         style="fill:none;stroke:#000000;stroke-width:1px;stroke-linecap:butt;stroke-linejoin:miter;stroke-opacity:1" />
      <path
         id="path3067"
         d="M 237.5625 636.59375 C 234.77678 636.69 231.83401 637.08516 229.0625 637.59375 C 224.62323 655.41034 220.40229 679.17946 218.65625 689.46875 L 245.46875 693.25 L 245.6875 692.78125 C 243.80898 691.25016 242.4375 690.21875 242.4375 690.21875 C 242.4375 690.21875 251.25565 668.58851 257.75 649.65625 C 254.54666 644.85148 250.19705 639.42042 245.96875 637.6875 C 243.69784 636.7568 240.73465 636.48415 237.5625 636.59375 z "
         style="fill:#784421;stroke:#000000;stroke-width:1px;stroke-linecap:butt;stroke-linejoin:miter;stroke-opacity:1" />
      <path
         sodipodi:nodetypes="cccccccccccccccccc"
         inkscape:connector-curvature="0"
         id="path3077"
         d="m 367.19046,673.30244 c -36.26758,3.08326 -60.66624,-0.45676 -94.95435,-8.33376 l 6.06092,61.11423 5.05076,29.7995 -1.51523,33.33503 14.14214,22.72844 18.18274,-18.18275 -10.10152,-47.98225 10.10152,-44.95178 26.76904,41.92133 12.62691,50.00255 9.59645,15.15229 10.6066,3.03045 14.64721,-16.66751 0.50508,-30.30458 -19.1929,-14.64721 6.56599,-18.68782 z"
         style="fill:#0088aa;stroke:#000000;stroke-width:1px;stroke-linecap:butt;stroke-linejoin:miter;stroke-opacity:1" />
      <path
         style="fill:#deaa87;stroke:#000000;stroke-width:1px;stroke-linecap:butt;stroke-linejoin:miter;stroke-opacity:1"
         d="m 397.07661,605.57889 c -11.71878,14.63578 -20.68118,24.34037 -26.76904,47.98225 l -21.21321,-1.51523 -12.12183,12.12183 c 0,0 0.97801,6.43584 3.53554,7.07107 4.21671,1.04733 10.6066,-7.57614 10.6066,-7.57614 0,0 -9.98869,7.83114 -7.07107,11.11167 3.60299,4.05116 14.64721,-7.07106 14.64721,-7.07106 0,0 -8.77434,10.5334 -5.05076,13.63706 4.81292,4.01164 11.04919,-13.21751 16.16244,-9.59645 4.90407,3.47293 -9.08736,15.37803 -3.53553,17.67767 5.60819,2.32299 10.10152,-15.15229 10.10152,-15.15229 0,0 7.95251,7.14888 11.61676,5.05076 4.85669,-2.7809 2.0203,-16.66752 2.0203,-16.66752 l 37.37565,-44.44671 c -8.70562,-6.63087 -33.44912,-23.10871 -30.30458,-12.62691 z"
         id="path3119"
         inkscape:connector-curvature="0"
         sodipodi:nodetypes="ccccscscssscsccc" />
      <path
         inkscape:connector-curvature="0"
         id="path3079"
         d="m 316.17775,788.20729 -17.67767,4.04061 -19.69798,-3.03046 14.14214,51.01271 -2.52538,26.26396 -6.06092,4.04061 2.52538,5.55584 -37.88072,14.14214 -0.50507,7.07107 21.71828,5.05076 59.09392,-15.15229 -5.55584,-39.39595 -0.50508,-51.51778 z"
         style="fill:#000000;stroke:#000000;stroke-width:1px;stroke-linecap:butt;stroke-linejoin:miter;stroke-opacity:1" />
      <path
         inkscape:connector-curvature="0"
         id="path3081"
         d="m 385.3732,790.2276 -15.65737,8.08122 -17.17259,-2.52538 9.09137,33.84011 8.5863,30.30457 9.09137,35.86042 27.27412,16.16244 39.39595,-5.55584 7.07107,-4.04061 -29.7995,-12.62691 -13.13199,-6.56599 12.62691,-6.06091 -14.14214,-5.05077 c 0,0 -12.12183,-50.50762 -12.6269,-52.52793 -0.50508,-2.0203 -3.53554,-25.75889 -3.53554,-25.75889 z"
         style="fill:#000000;stroke:#000000;stroke-width:1px;stroke-linecap:butt;stroke-linejoin:miter;stroke-opacity:1" />
      <path
         sodipodi:nodetypes="cssssssscsssscccc"
         inkscape:connector-curvature="0"
         id="path3085"
         d="m 283.85287,419.50161 c 0,0 -23.64493,6.61596 -33.84011,13.13199 -5.51797,3.52669 -12.12731,7.40601 -14.14214,13.63706 -2.63156,8.13833 5.55092,16.75986 4.54569,25.25381 -0.88599,7.4864 -11.08503,13.43789 -9.09138,20.70813 3.28662,11.98533 18.6298,17.45804 30.30458,21.71828 10.15293,3.70491 21.62108,4.02106 32.32488,2.52538 12.45082,-1.7398 24.44325,-6.88889 35.35534,-13.13199 5.08952,-2.91185 13.63706,-11.11167 13.63706,-11.11167 0,0 0.23955,10.20023 4.04061,12.12183 5.3692,2.71436 12.81116,-1.41168 17.17259,-5.55584 5.48541,-5.21215 10.67486,-14.10481 8.08122,-21.21321 -1.18827,-3.25671 -5.70459,-4.31059 -9.09137,-5.05076 -4.28903,-0.93735 -13.13198,1.01015 -13.13198,1.01015 6.85429,-5.58773 6.9476,-24.81579 -0.50508,-29.7995 l -35.35534,-29.29442 z"
         style="fill:#deaa87;fill-opacity:1;stroke:#000000;stroke-width:1px;stroke-linecap:butt;stroke-linejoin:miter;stroke-opacity:1" />
      <path
         sodipodi:nodetypes="cc"
         inkscape:connector-curvature="0"
         id="path3087"
         d="m 274.76149,482.13107 c -12.46993,-9.16477 -25.56492,-6.71174 -15.15229,3.53553"
         style="fill:none;stroke:#000000;stroke-width:1px;stroke-linecap:butt;stroke-linejoin:miter;stroke-opacity:1" />
      <path
         inkscape:connector-curvature="0"
         id="path3089"
         d="m 291.42901,494.2529 c -2.02031,0 -29.29442,-3.03046 -29.29442,-3.03046 l -5.55584,1.01016 2.0203,5.55583 3.53554,3.53554"
         style="fill:none;stroke:#000000;stroke-width:1px;stroke-linecap:butt;stroke-linejoin:miter;stroke-opacity:1" />
      <path
         sodipodi:nodetypes="sssssssssss"
         inkscape:connector-curvature="0"
         id="path3930"
         d="m 246.9823,453.8468 c -0.50508,-3.03046 -0.84455,-12.84003 3.03046,-17.17259 9.9442,-11.11838 28.04057,-11.7514 42.93148,-12.62691 8.01283,-0.47111 16.24833,1.15554 23.73858,4.04061 10.24215,3.94504 22.12281,8.27181 27.7792,17.67767 3.30733,5.49967 7.01917,15.89268 1.51523,19.1929 -4.28577,2.5698 -8.35428,-5.48963 -12.62691,-8.08122 -8.96303,-5.43658 -16.96482,-13.75722 -27.27412,-15.65737 -9.5544,-1.76101 -19.53748,1.58079 -28.78935,4.54569 -8.24556,2.64241 -14.57489,11.61675 -23.2335,11.61675 -2.63523,0 -6.11547,2.19803 -7.07107,-3.53553 z"
         style="fill:#e5bda2;stroke:none;stroke-width:1px;stroke-linecap:butt;stroke-linejoin:miter;stroke-opacity:1;fill-opacity:1;filter:url(#filter3932)" />
      <path
         sodipodi:nodetypes="ccc"
         inkscape:connector-curvature="0"
         id="path3091"
         d="m 263.64981,459.90771 c -6.02983,-10.67985 -3.81939,-22.80051 -13.13198,-10.10152 8.02092,-2.42683 8.38075,3.56858 13.13198,10.10152 z"
         style="fill:#000000;stroke:#000000;stroke-width:1px;stroke-linecap:butt;stroke-linejoin:miter;stroke-opacity:1" />
      <path
         sodipodi:nodetypes="ccc"
         inkscape:connector-curvature="0"
         id="path3093"
         d="m 292.94424,460.41279 c 16.58439,-9.73457 20.23043,-16.46473 33.84011,-3.53553 -13.57279,-6.18708 -19.79374,-1.11254 -33.84011,3.53553 z"
         style="fill:#000000;stroke:#000000;stroke-width:1px;stroke-linecap:butt;stroke-linejoin:miter;stroke-opacity:1" />
      <g
         style="filter:url(#filter3924)"
         id="g3908">
        <path
           style="fill:#d59265;fill-opacity:1;stroke:none"
           d="m 308.40625,460 c -10.63976,-0.84657 -15.7048,16.09235 -5.90625,20.84375 8.69499,6.56328 23.26469,-4.64442 17.4375,-14.5 -2.08574,-4.18796 -6.90577,-6.70725 -11.53125,-6.34375 z"
           id="path3124"
           inkscape:connector-curvature="0" />
        <path
           style="fill:#d59265;fill-opacity:1;stroke:none"
           d="m 256.65625,455.34375 c -9.06048,-0.71401 -12.43825,13.85465 -3.75,16.875 7.32891,4.34834 18.08599,-5.2175 12.78125,-12.625 -1.98666,-2.92519 -5.53954,-4.47701 -9.03125,-4.25 z"
           id="path3126"
           inkscape:connector-curvature="0" />
      </g>
      <path
         d="m 315.1676,471.27194 a 6.0609155,5.3033009 0 1 1 -12.12183,0 6.0609155,5.3033009 0 1 1 12.12183,0 z"
         sodipodi:ry="5.3033009"
         sodipodi:rx="6.0609155"
         sodipodi:cy="471.27194"
         sodipodi:cx="309.10669"
         id="path3095"
         style="fill:#000000;fill-opacity:1;stroke:none"
         sodipodi:type="arc" />
      <path
         d="m 315.1676,471.27194 a 6.0609155,5.3033009 0 1 1 -12.12183,0 6.0609155,5.3033009 0 1 1 12.12183,0 z"
         sodipodi:ry="5.3033009"
         sodipodi:rx="6.0609155"
         sodipodi:cy="471.27194"
         sodipodi:cx="309.10669"
         id="path3095-7"
         style="fill:#000000;fill-opacity:1;stroke:none"
         sodipodi:type="arc"
         transform="matrix(0.70833334,0,0,0.66666667,38.385785,150.01957)" />
      <path
         sodipodi:nodetypes="ccccccscccccc"
         inkscape:connector-curvature="0"
         id="path3115"
         d="m 283.85287,360.91276 c -12.05052,37.48427 -9.9172,48.42426 -5.55584,86.36805 18.18628,-36.67196 52.63012,-14.67251 71.98594,-1.56646 l 12.36179,-9.54522 9.59645,-4.04061 -16.66751,-4.54569 c 0,0 17.17259,-9.59645 13.63706,-9.59645 -3.53554,0 -27.7792,-1.01015 -27.7792,-1.01015 l 17.67767,-22.72843 -33.84011,13.63706 7.07107,-45.96194 c -21.46324,9.24522 -30.33775,16.48217 -38.3858,36.87057 z"
         style="fill:#677821;stroke:#000000;stroke-width:1px;stroke-linecap:butt;stroke-linejoin:miter;stroke-opacity:1" />
      <path
         id="path3072"
         d="M 400.03125 597.6875 C 398.87531 597.68982 397.65959 597.76236 396.40625 597.84375 L 398.5 604.875 C 393.30479 611.36338 388.66396 616.86844 384.5625 623.0625 C 396.88503 626.27715 403.26183 629.6907 409.65625 640.28125 L 428.8125 617.5 L 429.9375 614.4375 C 421.46057 603.612 414.2602 597.65894 400.03125 597.6875 z "
         style="fill:#784421;stroke:#000000;stroke-width:1px;stroke-linecap:butt;stroke-linejoin:miter;stroke-opacity:1" />
      <path
         inkscape:connector-curvature="0"
         id="path3936"
         d="m 311.63206,680.12097 0,19.69797 8.5863,5.55584"
         style="fill:none;stroke:#000000;stroke-width:1px;stroke-linecap:butt;stroke-linejoin:miter;stroke-opacity:1" />
      <path
         inkscape:connector-curvature="0"
         id="path3938"
         d="m 361.63461,685.17173 -22.22335,-1.51523 -6.566,7.07107"
         style="fill:none;stroke:#000000;stroke-width:1px;stroke-linecap:butt;stroke-linejoin:miter;stroke-opacity:1" />
      <path
         inkscape:connector-curvature="0"
         id="path3940"
         d="m 277.79195,676.08036 18.18275,3.03046 4.54568,6.56599"
         style="fill:none;stroke:#000000;stroke-width:1px;stroke-linecap:butt;stroke-linejoin:miter;stroke-opacity:1" />
      <path
         d="m 355.62501,499.14789 a 2.0982144,1.1607143 0 1 1 -4.19643,0 2.0982144,1.1607143 0 1 1 4.19643,0 z"
         sodipodi:ry="1.1607143"
         sodipodi:rx="2.0982144"
         sodipodi:cy="499.14789"
         sodipodi:cx="353.52679"
         id="path3948"
         style="fill:#cf834f;fill-opacity:1;stroke:none;filter:url(#filter3954)"
         sodipodi:type="arc" />
      <path
         sodipodi:nodetypes="ccccc"
         inkscape:connector-curvature="0"
         id="path3944"
         d="m 352.76786,499.23718 c -1.75341,3.62409 -1.93667,5.21452 -0.44643,8.66071 1.77465,0.5213 1.98426,0.13738 3.125,-1.16071 -2.88997,-2.66969 -2.69545,-3.49733 -1.78571,-7.05357 z"
         style="fill:#b3b3b3;stroke:#000000;stroke-width:1px;stroke-linecap:butt;stroke-linejoin:miter;stroke-opacity:1" />
      <path
         sodipodi:nodetypes="cccc"
         inkscape:connector-curvature="0"
         id="path3958"
         d="m 367.79011,479.5303 c -8.37918,-2.50816 -8.63682,-1.36498 -15.5347,3.33468 l 5.69334,-3.74134 c 7.36482,7.27182 4.25124,9.90252 -4.148,13.01336"
         style="fill:none;stroke:#502d16;stroke-width:3;stroke-linecap:round;stroke-linejoin:miter;stroke-opacity:1;stroke-miterlimit:4;stroke-dasharray:none" />
      <path
         id="path3960"
         d="M 283.84375 360.90625 C 281.97972 366.7045 280.51077 371.83633 279.28125 376.5625 C 279.13166 377.99914 278.972 379.43943 278.8125 380.875 C 278.60751 382.71992 278.37314 384.56269 278.15625 386.40625 C 277.93936 388.24981 277.78657 390.10348 277.5 391.9375 C 277.24391 393.5765 276.70195 395.16242 276.53125 396.8125 C 276.37502 398.32266 276.65232 399.86161 276.53125 401.375 C 276.43455 402.58359 275.98995 403.73051 275.875 404.9375 C 275.77318 406.00668 275.87307 407.08213 275.875 408.15625 C 275.92578 407.83887 276.12707 408.12552 276.84375 403.96875 C 276.9923 403.10715 277.09472 402.24483 277.1875 401.375 C 277.1875 401.80878 277.1024 402.23089 277.1875 402.65625 C 277.2176 402.80664 277.36995 403.08129 277.5 403 C 277.58911 402.94431 277.7157 402.85038 277.8125 402.78125 C 277.69299 403.49902 277.54998 404.21276 277.5 404.9375 C 277.39554 406.45213 277.5 407.98178 277.5 409.5 C 277.5 409.90775 277.1431 413.38707 278.15625 414.0625 C 278.44159 414.25273 278.38466 413.4167 278.5 413.09375 C 278.92692 411.89838 279.36604 410.69949 279.78125 409.5 C 280.13396 408.48106 280.47807 407.46269 280.8125 406.4375 C 280.66693 407.12236 280.53615 407.77217 280.4375 408.3125 C 280.4781 408.81967 280.62879 409.95022 281.125 405.46875 C 281.22214 405.18839 281.30205 404.90287 281.40625 404.625 C 281.65402 403.96427 281.72844 403.74103 281.9375 403.1875 C 282.07117 404.04248 282.21267 405.00544 282.375 406.25 C 282.57873 407.81193 282.67182 409.39657 282.78125 410.96875 C 282.71576 411.08698 282.64101 411.20262 282.59375 411.28125 C 282.53826 410.97042 282.10453 412.11997 282.59375 411.3125 C 282.61728 411.55885 282.46447 412.45913 281.75 415.03125 C 281.31786 416.58697 281.05125 417.35322 280.875 417.84375 C 280.85639 418.04459 280.81546 418.26894 280.78125 418.5625 C 281.16804 417.17863 281.33187 417.27914 282.71875 414.71875 C 282.84264 414.49002 282.9706 414.26038 283.09375 414.03125 C 283.36747 416.00675 283.7552 417.83269 284.34375 419.625 L 284.34375 419.90625 C 284.36272 419.86356 284.38709 419.82386 284.40625 419.78125 C 284.67404 420.57964 284.95181 421.37594 285.3125 422.1875 C 285.31801 422.19989 285.33995 422.18135 285.34375 422.1875 C 285.34304 422.08149 285.27058 421.68843 285.3125 421.53125 C 285.69255 420.10605 286.33573 418.75886 286.625 417.3125 C 286.81728 416.3511 286.86263 415.35507 286.9375 414.375 C 287.41608 413.19263 287.8577 412.01591 288.28125 410.8125 C 288.36837 411.8931 288.44781 412.98444 288.5625 414.0625 C 288.67519 415.12184 288.83617 416.16583 289 417.21875 C 288.61781 417.77922 288.19419 418.32562 287.90625 418.9375 C 286.75878 421.37587 286.9375 421.3737 286.9375 423.5 L 286.9375 424.78125 C 286.9375 424.8897 286.8773 425.21523 286.9375 425.125 C 287.20652 424.72147 287.40555 424.25948 287.59375 423.8125 C 288.19932 422.37426 288.76428 420.91774 289.34375 419.46875 C 289.41323 419.93855 289.5036 420.40383 289.5625 420.875 C 290.06113 424.864 290.08552 427.52135 290.84375 431.3125 C 290.87392 431.46334 290.92586 431.60217 290.96875 431.75 C 291.37771 431.47389 291.8039 431.21779 292.21875 430.96875 C 292.25096 429.88297 292.25442 428.79862 292.15625 427.71875 C 291.98677 425.85439 291.44503 424.04175 291.1875 422.1875 C 290.92257 420.28004 290.78343 418.35053 290.5625 416.4375 C 290.98025 415.42559 291.39568 414.41853 291.8125 413.40625 C 292.33602 412.13483 292.81588 410.83194 293.34375 409.5625 C 292.32994 409.9719 292.15625 407.76482 292.15625 407.5625 C 292.15625 406.45658 292.70246 405.38168 292.8125 404.28125 C 292.92041 403.20219 292.8125 402.1157 292.8125 401.03125 L 292.8125 399.78125 C 292.95318 399.25369 293.11551 398.59573 293.4375 397.46875 C 293.47519 397.33684 293.49517 397.28217 293.53125 397.15625 L 290 383.90625 C 289.90458 384.06888 289.80706 384.22402 289.71875 384.375 C 289.54873 384.39261 289.38275 384.38283 289.21875 384.4375 C 288.82587 384.56846 288.35182 384.82272 287.84375 385.125 C 287.86649 383.70956 287.90625 382.28987 287.90625 380.875 C 287.90625 379.25414 287.88882 377.62117 287.875 376 L 283.84375 360.90625 z M 293.34375 409.5625 C 293.37871 409.54838 293.40053 409.52054 293.4375 409.5 C 294.12213 409.11965 295.48623 408.09456 296.71875 407.125 C 296.70447 404.73144 296.68762 404.23668 296.875 402.84375 C 296.18282 403.88283 295.41638 405.22973 294.09375 407.875 C 293.81704 408.42842 293.58129 408.99125 293.34375 409.5625 z M 296.875 402.84375 C 297.89272 401.31599 298.77558 400.49304 301.25 397.46875 C 301.36713 397.32559 301.47935 397.17658 301.59375 397.03125 L 301.59375 393.25 L 301.59375 387.0625 C 301.59375 385.97312 301.61615 384.87089 301.625 383.78125 C 301.23895 384.34378 300.8728 384.90823 300.5 385.5 C 299.55242 388.352 298.60659 390.74098 298 393.875 C 297.66773 395.59176 297.56064 397.35863 297.34375 399.09375 C 297.09121 401.11404 296.97395 402.1082 296.875 402.84375 z M 301.59375 397.03125 L 301.59375 398.25 C 300.93203 400.15183 300.33207 402.08323 299.625 403.96875 C 299.45479 404.42264 299.28504 404.86669 299.09375 405.3125 C 299.9237 404.72965 300.74681 404.15179 301.59375 403.59375 L 301.59375 403.96875 C 301.65981 403.79889 301.73946 403.63568 301.8125 403.46875 C 302.3843 403.09438 302.94988 402.70283 303.53125 402.34375 C 303.63787 402.2779 303.85013 402.16591 303.96875 402.09375 C 304.08152 401.45254 304.15698 401.63874 304.1875 401.96875 C 304.12535 402.00631 304.02806 402.05767 303.96875 402.09375 C 303.9158 402.39479 303.8596 402.9124 303.78125 403.71875 C 303.90436 403.54933 304.05575 403.33606 304.1875 403.15625 L 304.1875 402 C 304.21602 402.33497 304.22629 402.52879 304.21875 401.9375 C 304.661 401.67047 305.18913 401.35888 305.75 401.03125 C 305.1728 401.81049 304.68836 402.47267 304.1875 403.15625 L 304.1875 406.25 L 304.1875 407.9375 C 304.50288 407.04478 304.83547 406.1723 305.15625 405.28125 C 305.70232 403.7644 306.1265 402.19194 306.78125 400.71875 C 306.85467 400.55357 306.86876 400.49771 306.9375 400.34375 C 307.21944 400.18192 307.54905 400.01129 307.84375 399.84375 C 308.01733 398.91699 308.16476 398.17451 308.25 397.65625 C 308.19047 397.73895 308.12291 397.82268 308.0625 397.90625 C 308.15242 397.71502 308.20718 397.62135 308.28125 397.46875 C 308.63018 395.28582 308.27121 396.27011 308.3125 394.8125 C 307.8104 395.27183 307.30395 395.72067 306.78125 396.15625 C 306.59497 396.31149 306.125 396.74249 306.125 396.5 C 306.125 396.109 306.60639 395.84972 306.78125 395.5 C 307.04242 394.97766 307.29586 394.44156 307.4375 393.875 C 307.73156 392.69875 307.76684 391.48004 308.09375 390.3125 C 308.36672 389.3376 308.81237 388.06654 309.3125 386.78125 C 309.20006 387.38881 309.12297 387.92909 309.0625 388.34375 C 308.49025 392.26773 308.33667 393.95938 308.3125 394.8125 C 308.57285 394.57432 308.83658 394.33559 309.09375 394.09375 C 309.13949 394.54072 309.20731 395.07212 309.15625 396.3125 C 309.6029 395.67115 310.06576 395.02603 310.375 394.53125 C 311.08955 393.38796 311.73555 392.21916 312.375 391.03125 C 312.44053 390.97197 312.49668 390.90269 312.5625 390.84375 C 312.39182 391.32443 312.23486 391.79705 312 392.25 C 309.90843 396.28374 309.29664 397.00816 309.125 396.875 C 309.10484 397.17292 309.10126 397.41303 309.0625 397.78125 C 309.0588 397.81797 308.76206 398.64057 308.5625 399.4375 C 308.32133 399.57359 308.07883 399.7101 307.84375 399.84375 C 307.71868 400.51148 307.61977 401.09388 307.4375 402.03125 C 306.49725 406.86684 306.15773 407.40133 304.84375 411.78125 C 304.61689 412.53745 304.97699 414.0625 304.1875 414.0625 C 303.42839 414.0625 304.1875 412.54037 304.1875 411.78125 L 304.1875 407.9375 C 304.08017 408.2413 303.96761 408.53506 303.875 408.84375 C 303.71354 409.38192 303.62941 409.94499 303.53125 410.5 C 303.53225 410.60367 303.53125 410.70886 303.53125 410.8125 L 303.53125 417.625 L 303.53125 420.5625 L 303.53125 422.1875 C 303.53125 422.29595 303.42698 422.52979 303.53125 422.5 C 305.60386 421.90782 307.35448 420.58396 309.09375 419.375 C 309.09751 419.36624 309.08999 419.35251 309.09375 419.34375 C 309.29805 419.20183 309.51396 419.07403 309.71875 418.9375 C 311.47355 417.76763 316.23812 415.04889 317.53125 412.75 C 317.82016 412.23637 317.59021 411.60938 317.53125 411 C 317.64023 410.93703 317.76955 410.84064 317.875 410.78125 C 317.75237 410.84037 317.63997 410.91301 317.53125 410.96875 C 317.51699 410.80377 317.50266 410.62598 317.53125 410.46875 C 317.65483 409.78902 318.70038 409.27206 317.84375 408.84375 C 317.74675 408.79525 317.63969 408.84375 317.53125 408.84375 C 316.85433 408.84375 316.59689 408.81277 316.4375 408.8125 C 316.86296 407.6905 317.12113 406.71736 317.1875 406.5625 C 317.91745 404.85927 318.60833 403.13309 319.28125 401.40625 C 319.26261 401.99914 319.23387 402.72482 319.15625 403.65625 C 319.07325 404.65261 318.74249 405.59254 318.5 406.5625 C 318.30852 407.32842 317.2855 408.28549 317.84375 408.84375 C 318.35815 409.35814 318.56609 407.59072 318.8125 406.90625 C 319.54439 404.87323 320.1743 402.79249 320.78125 400.71875 C 320.80248 400.64622 320.82275 400.57259 320.84375 400.5 C 320.82634 400.74696 320.81914 401.00002 320.8125 401.25 C 320.86077 400.86314 320.91661 400.4802 320.96875 400.09375 C 321.10889 399.59971 321.21033 399.08968 321.34375 398.59375 C 321.13832 399.47347 320.99818 400.3657 320.8125 401.25 C 320.81222 401.26039 320.81276 401.27085 320.8125 401.28125 C 320.81122 401.29153 320.81378 401.30222 320.8125 401.3125 C 320.80783 401.33453 320.78597 401.35299 320.78125 401.375 C 320.77671 401.39621 320.7827 401.40382 320.78125 401.4375 C 320.44894 404.13842 320.22209 406.83837 320.15625 409.5625 C 319.5107 409.89938 318.36423 410.50572 317.875 410.78125 C 318.49782 410.48099 319.28908 410.14393 320.15625 409.78125 C 320.1519 409.9895 320.15861 410.19785 320.15625 410.40625 C 320.21152 410.16339 320.24977 409.94632 320.3125 409.71875 C 320.75468 409.53438 321.19123 409.31674 321.65625 409.125 C 321.57492 409.06784 321.52336 408.96979 321.46875 408.875 C 321.08393 409.07617 320.70264 409.28303 320.40625 409.4375 C 320.80711 408.0601 321.29273 406.8738 321.4375 405.28125 C 322.13486 397.61029 321.82266 398.63758 321.5 400.5625 C 321.61102 399.79613 321.70316 399.24671 321.9375 397.5625 C 321.82498 397.62504 321.70497 397.68508 321.59375 397.75 C 321.64855 397.54314 321.69542 397.33192 321.75 397.125 C 321.8718 396.77179 322.01933 396.44132 322.15625 396.09375 C 322.13773 396.22882 322.11238 396.36494 322.09375 396.5 C 321.99269 397.2327 322.02051 396.96591 321.9375 397.5625 C 321.98985 397.5334 322.04101 397.49715 322.09375 397.46875 C 323.83095 396.53333 325.56787 395.64021 327.3125 394.71875 L 327.375 394.1875 L 325.09375 392.125 C 324.64465 392.26926 324.20147 392.42486 323.75 392.5625 C 323.84959 392.35642 323.93149 392.14326 324.03125 391.9375 C 324.11658 391.76151 324.19588 391.58238 324.28125 391.40625 L 323.75 390.90625 C 324.19043 390.51113 324.64713 390.13794 325.09375 389.75 C 325.54141 388.85847 326.02367 387.98202 326.53125 387.125 C 326.23288 387.41951 325.93357 387.71696 325.65625 388.03125 C 325.23472 388.50898 324.77178 389.07102 324.28125 389.6875 C 325.87061 386.0936 327.42369 382.60557 327.9375 381.53125 C 328.52483 380.30321 329.21926 379.13113 329.875 377.9375 L 332.34375 361.9375 C 330.89906 362.5598 329.52171 363.14128 328.1875 363.75 C 327.9222 364.02864 327.61868 364.32755 327.375 364.59375 C 327.34194 364.81317 327.31952 365.03134 327.28125 365.25 C 327.16738 365.90067 327.04191 366.54048 326.90625 367.1875 C 326.9822 366.53909 327.06393 365.96147 327.21875 364.78125 C 326.09867 366.01603 325.04986 367.2623 323.96875 368.59375 C 323.73992 369.3159 323.51029 370.03711 323.375 370.78125 C 323.07931 372.40752 322.98854 374.07065 322.84375 375.71875 C 321.92408 377.45453 322.5583 375.91576 319.8125 380.5625 C 319.25806 381.50079 318.6745 382.43156 318.1875 383.40625 L 318.1875 381.6875 C 319.3054 380.28479 318.23478 382.16481 321.09375 374.6875 C 321.71945 373.05107 322.37986 371.42602 323.0625 369.8125 C 323.09869 369.72695 323.14972 369.64739 323.1875 369.5625 C 323.01981 369.7686 322.89667 369.90755 322.71875 370.125 C 321.74275 371.31789 320.61389 372.40219 319.8125 373.71875 C 319.07949 374.92298 318.72973 376.32366 318.1875 377.625 C 318.1875 377.51656 318.2642 377.20456 318.1875 377.28125 C 317.15847 378.31028 316.66699 379.65414 316.21875 381 C 316.11233 381.17608 316.01531 381.35676 315.90625 381.53125 C 315.64549 381.94847 315.30547 382.46519 314.96875 382.96875 L 312.28125 380.53125 C 312.07889 380.8561 311.83859 381.19462 311.65625 381.53125 C 310.94047 382.8527 310.08426 384.79364 309.34375 386.6875 C 309.62442 385.18285 310.07871 383.14467 310.53125 381.0625 L 309.40625 382.1875 C 308.99089 382.60285 308.54385 382.99431 308.125 383.40625 C 306.72908 386.44396 305.76812 388.3501 304.84375 390.3125 C 304.9994 388.289 305.15922 387.26667 305.3125 386.4375 C 304.9487 386.86842 304.57154 387.27661 304.1875 387.6875 L 304.1875 391.8125 C 303.6918 392.92124 303.1603 394.24332 302.53125 395.84375 C 302.22713 396.24449 301.90484 396.63607 301.59375 397.03125 z M 304.1875 387.6875 L 304.1875 380.34375 C 303.96639 380.61086 303.74766 380.88233 303.53125 381.15625 L 303.53125 381.53125 C 303.53125 382.18192 303.63822 382.82694 303.53125 383.46875 C 303.0595 386.29925 302.84536 384.45586 302.5625 386.71875 C 302.5087 387.14918 302.6476 387.60589 302.5625 388.03125 C 302.5324 388.18163 302.31858 388.20658 302.25 388.34375 C 302.2015 388.44075 302.2985 388.5905 302.25 388.6875 C 302.1814 388.82467 301.97484 388.86283 301.90625 389 C 301.85775 389.097 301.80556 389.38403 301.90625 389.34375 C 302.49336 389.10891 303.06788 388.77403 303.53125 388.34375 C 303.75577 388.13527 303.97848 387.91113 304.1875 387.6875 z M 305.3125 386.4375 C 305.69358 385.98612 306.06321 385.52182 306.46875 385.09375 C 307.01405 384.51816 307.55963 383.9623 308.125 383.40625 C 308.22753 383.18313 308.29838 383.04983 308.40625 382.8125 C 309.03074 381.43862 309.65286 380.07357 310.25 378.6875 L 308.0625 376.71875 C 309.17159 376.06609 310.25122 375.36664 311.34375 374.6875 C 311.57529 374.54357 311.80115 374.39619 312.03125 374.25 C 312.00504 374.36182 311.99546 374.51059 311.96875 374.625 C 312.02861 374.48244 312.06546 374.3302 312.125 374.1875 C 314.0449 372.96448 315.92123 371.68791 317.84375 370.46875 C 320.10567 369.03436 322.52966 367.8054 324.6875 366.21875 C 324.77007 365.98283 324.78102 365.67943 324.78125 365.34375 C 316.8378 369.20493 310.95982 373.0627 306.1875 378.09375 C 306.17764 378.69466 306.15835 379.30597 306.125 379.90625 C 305.88731 384.18466 305.61868 384.78119 305.3125 386.4375 z M 324.6875 366.21875 C 325.02837 365.96811 325.79711 365.30166 326.6875 364.46875 C 326.17942 364.70677 325.64848 364.95003 325.15625 365.1875 C 324.96426 365.57108 324.76635 365.91649 324.6875 366.21875 z M 324.6875 366.21875 C 324.28532 367.36785 323.68264 368.4499 323.1875 369.5625 C 323.47252 369.21219 323.70572 368.91769 323.96875 368.59375 C 324.21764 367.8083 324.47985 367.01475 324.6875 366.21875 z M 311.96875 374.625 C 311.86766 374.86575 311.75838 375.10344 311.65625 375.34375 C 311.18273 376.45793 310.72902 377.5756 310.25 378.6875 L 310.90625 379.3125 C 311.27447 377.65437 311.63077 376.07267 311.96875 374.625 z M 310.90625 379.3125 C 310.77213 379.91643 310.66111 380.465 310.53125 381.0625 L 311.625 379.9375 L 310.90625 379.3125 z M 311.625 379.9375 L 312.28125 380.53125 C 312.82628 379.65631 313.38393 378.80741 313.9375 377.9375 C 314.11713 377.65522 314.29215 377.37803 314.46875 377.09375 L 311.625 379.9375 z M 314.46875 377.09375 L 315.25 376.3125 C 316.43409 375.12841 317.03445 374.8654 317.53125 373.375 C 317.59985 373.16924 317.70476 372.61987 317.53125 372.75 C 316.97574 373.16663 316.61214 373.8028 316.21875 374.375 C 315.60726 375.26444 315.03846 376.17667 314.46875 377.09375 z M 327.21875 364.78125 C 327.27487 364.71939 327.31791 364.65611 327.375 364.59375 C 327.40013 364.42699 327.41499 364.26089 327.4375 364.09375 C 327.38623 364.11744 327.33236 364.13257 327.28125 364.15625 C 327.27329 364.2154 327.28941 364.22006 327.28125 364.28125 C 327.24489 364.55395 327.2509 364.53616 327.21875 364.78125 z M 326.53125 387.125 C 326.99709 386.66519 327.47477 386.21273 327.9375 385.75 C 328.22947 385.45804 328.52363 385.17023 328.8125 384.875 L 329 383.6875 C 328.2815 384.56703 327.57532 385.44852 326.96875 386.40625 C 326.81924 386.64232 326.67361 386.88464 326.53125 387.125 z M 325.09375 389.75 C 324.8176 390.29996 324.54951 390.85279 324.28125 391.40625 L 325.09375 392.125 C 325.60902 391.95948 326.11617 391.77693 326.625 391.59375 C 327.03469 391.44626 327.4365 391.27896 327.84375 391.125 L 328.5 386.875 C 327.86164 387.39308 327.24572 387.90981 326.3125 388.6875 C 325.89796 389.03295 325.5011 389.39616 325.09375 389.75 z M 321.46875 408.875 C 322.15779 408.51479 322.26247 408.46835 323.375 407.875 L 323.375 408.1875 C 323.375 408.26341 323.37262 408.36215 323.375 408.4375 C 322.80265 408.6789 322.26811 408.88559 321.6875 409.125 C 322.28637 409.51057 323.41532 409.05966 323.875 408.90625 C 324.18081 408.95009 324.53227 408.80274 324.84375 408.625 C 325.01203 408.57861 325.17707 408.51714 325.34375 408.46875 C 325.40453 408.35229 325.47158 408.24196 325.53125 408.125 C 325.57602 408.0878 325.61227 408.03826 325.65625 408 C 325.58853 408.14953 325.53291 408.29179 325.46875 408.4375 C 325.69504 408.37103 325.93243 408.31969 326.15625 408.25 C 325.82768 408.5391 325.48538 408.82036 325.15625 409.125 C 325.10713 409.2431 325.04568 409.3858 325 409.5 C 324.15566 411.61085 324.59428 411.70691 323.78125 413.5625 C 324.85149 412.93069 325.80532 412.36143 326.3125 412.09375 C 328.34414 411.02149 330.42896 410.10018 332.53125 409.1875 C 333.9908 407.59477 335.54983 406.05142 337 404.625 C 338.58021 404.19492 339.27877 404.05988 340.28125 403.53125 C 339.38139 404.63634 338.4073 405.69319 337.375 406.5625 C 336.8936 406.96789 336.40975 407.37017 335.90625 407.75 C 336.59942 407.4644 337.27436 407.15784 337.96875 406.875 C 338.92234 405.8129 339.86824 404.6507 340.90625 403.15625 C 341.65026 402.71275 342.65315 402.07498 344.21875 401.03125 C 344.94728 400.54556 345.60006 399.95771 346.28125 399.40625 L 325.28125 407.875 L 326.9375 397 C 325.2826 398.38943 323.51953 400.08594 322.71875 401.6875 C 322.27162 402.58176 322.33624 403.65505 322.09375 404.625 C 321.29412 407.82352 321.4375 405.8405 321.4375 408.53125 C 321.4375 408.6397 321.389 408.74675 321.4375 408.84375 C 321.44456 408.85787 321.46109 408.8617 321.46875 408.875 z M 337.96875 406.875 C 336.74336 408.23984 335.49147 409.55275 333.90625 411.40625 C 334.64616 410.91553 335.39194 410.39364 336.0625 409.8125 C 336.98966 409.00896 337.81994 408.0863 338.6875 407.21875 L 339.6875 406.1875 C 339.11398 406.42176 338.54251 406.6413 337.96875 406.875 z M 333.90625 411.40625 C 333.86828 411.43143 333.81914 411.44349 333.78125 411.46875 C 333.57948 411.60326 333.29076 411.57949 333.15625 411.78125 C 333.05808 411.92851 333.09884 412.1276 333.125 412.3125 C 333.38353 411.99923 333.66372 411.68983 333.90625 411.40625 z M 333.125 412.3125 C 332.90877 412.57451 332.72871 412.80786 332.5 413.09375 C 332.4523 413.15337 332.42172 413.1921 332.375 413.25 C 332.63025 413.04866 332.90593 412.87495 333.15625 412.6875 C 333.14286 412.60307 333.15625 412.52509 333.15625 412.4375 C 333.15625 412.39759 333.1309 412.35419 333.125 412.3125 z M 333.15625 412.6875 C 333.15944 412.7076 333.14692 412.73135 333.15625 412.75 C 333.70921 413.85593 335.61283 412.33421 336.71875 411.78125 C 337.46338 411.40894 338.02987 411.08477 338.65625 410.75 C 337.79597 411.49629 336.84929 412.34256 336.71875 412.4375 C 336.32653 412.72275 335.81751 412.83671 335.40625 413.09375 C 333.9314 414.01553 334.125 413.5996 334.125 414.71875 C 334.125 414.82719 334.028 414.98275 334.125 415.03125 C 334.52493 415.23121 334.96977 415.44074 335.40625 415.34375 C 336.22044 415.16282 338.0554 413.58435 339.03125 412.6875 C 339.01978 412.70794 339.01055 412.7289 339 412.75 C 338.903 412.944 339.44055 412.7727 339.65625 412.75 C 340.08163 412.70522 340.50809 412.6833 340.9375 412.65625 C 337.72183 414.68604 334.92096 416.59663 332.09375 418.9375 L 335.5 418.9375 C 334.54159 419.78313 335.17363 419.54166 332.8125 420.25 C 331.57779 420.62041 331.36783 420.5625 330.21875 420.5625 C 330.32933 420.4606 330.41858 420.34967 330.53125 420.25 C 331.05616 419.78566 331.57525 419.3668 332.09375 418.9375 L 329.875 418.9375 C 329.84457 418.9375 329.60931 419.01024 329.28125 419.0625 C 329.27168 419.23799 329.25 419.40218 329.25 419.59375 C 329.25 419.93668 329.32002 420.32001 329.5625 420.5625 C 329.70912 420.70912 329.97516 420.57455 330.1875 420.5625 C 329.06478 421.59917 328.04976 422.73149 326.96875 423.8125 C 326.37725 424.404 323.375 426.63006 323.375 428.375 C 323.375 428.68173 323.77603 428.8611 324.03125 429.03125 C 324.12145 429.09145 324.23531 429.03125 324.34375 429.03125 C 325.57669 429.03125 325.92486 429.12855 327.28125 428.375 C 328.64844 427.61545 329.86399 426.61457 331.1875 425.78125 C 332.79281 424.77049 334.40911 423.77378 336.0625 422.84375 C 337.88058 421.82108 339.728 420.83913 341.59375 419.90625 C 342.36441 419.52092 342.77502 419.31787 343.3125 419.0625 C 342.53106 419.53169 341.7495 420.05718 340.625 420.875 C 340.37694 421.0554 340.18564 421.31436 339.96875 421.53125 C 339.86031 421.6397 339.72484 421.73782 339.65625 421.875 C 339.60775 421.972 339.70475 422.09051 339.65625 422.1875 C 339.58765 422.32467 339.38108 422.36282 339.3125 422.5 C 339.264 422.597 339.3125 422.7353 339.3125 422.84375 C 339.3125 422.95219 339.21181 423.11598 339.3125 423.15625 C 340.73705 423.72607 341.71704 423.42929 343.21875 423.15625 C 343.27101 423.14675 343.32278 423.13472 343.375 423.125 C 343.17097 423.28169 343.02861 423.4287 343.21875 423.5 C 343.42818 423.57853 343.65564 423.61881 343.875 423.65625 L 343.875 423.03125 C 344.95045 422.81857 346.01788 422.5847 347.09375 422.375 C 348.40055 420.42475 348.3124 420.56972 348.96875 418.78125 C 350.43785 418.67799 351.89592 418.50662 353.3125 418.28125 C 354.08166 418.15888 354.8383 417.97285 355.59375 417.78125 C 355.59247 417.87143 355.59391 417.96544 355.59375 418.0625 C 355.40682 418.21607 355.03376 418.5528 354.9375 418.625 C 354.31189 419.0942 353.57864 419.38022 353 419.90625 C 352.41187 420.44092 351.9885 421.14809 351.46875 421.75 C 351.98055 421.68672 352.49142 421.61601 353 421.53125 C 353.98621 421.36689 354.91807 421.02702 355.90625 420.875 C 356.25695 420.52618 356.59194 420.1663 356.9375 419.8125 C 357.86375 420.06942 358.85497 420.11792 359.8125 420.25 C 360.47461 420.34133 361.14922 420.41386 361.8125 420.5 C 361.96971 420.47427 362.12399 420.43168 362.28125 420.40625 C 362.26394 420.46062 362.2394 420.51076 362.21875 420.5625 C 363.36985 420.7071 364.52981 420.81242 365.6875 420.875 C 366.00232 420.89202 366.30993 420.89845 366.625 420.90625 C 369.01263 419.28123 370.50997 418 369.21875 418 C 366.91886 418 357.67052 417.61128 350.21875 417.3125 C 349.91144 417.51067 349.59899 417.69194 349.28125 417.875 C 349.34373 417.71467 349.45754 417.46603 349.53125 417.28125 C 346.00252 417.13914 341.4375 416.96875 341.4375 416.96875 L 347.75 408.84375 C 347.42948 408.95611 347.19801 409.04472 346.8125 409.1875 C 346.4884 409.30754 346.15426 409.41324 345.84375 409.5625 C 345.86028 409.42787 345.8899 409.32208 345.90625 409.1875 C 346.60173 408.98227 347.27652 408.77814 347.96875 408.5625 L 352.6875 402.46875 C 352.30707 402.63918 351.75877 402.88778 351.3125 403.09375 C 351.87732 402.76226 352.43696 402.42809 353 402.09375 L 358.5 395 C 358.28224 395.04498 358.08231 395.10112 357.875 395.1875 C 356.29224 395.84698 355.0716 397.20444 353.625 398.125 C 353.42156 398.25446 353.21263 398.35442 353 398.46875 C 353.04037 398.5721 352.7768 398.70892 352.65625 398.78125 C 352.69768 398.73982 352.73982 398.66221 352.78125 398.59375 C 352.0778 398.95862 351.36664 399.29648 350.71875 399.75 C 349.24486 400.78172 347.92643 401.95698 346.65625 403.1875 C 346.8443 403.09894 347.03067 402.99475 347.21875 402.90625 C 347.18476 402.93371 347.15912 402.9727 347.125 403 C 346.88632 403.19094 346.75395 403.28944 346.5625 403.4375 C 346.57649 403.32399 346.58055 403.32464 346.59375 403.21875 C 346.32174 403.48283 346.04941 403.76308 345.78125 404.03125 C 343.90258 405.38179 345.37284 403.82271 341.8125 407.625 C 338.49898 409.28195 335.95866 410.589 333.15625 412.6875 z M 346.59375 403.21875 C 346.85115 401.15401 347.04922 399.72894 347.09375 399.09375 L 346.625 399.28125 C 346.13968 399.75871 345.66884 400.2374 345.1875 400.71875 L 339.75 406.15625 C 341.23527 405.54939 342.74715 404.91894 344.21875 404.28125 C 345.02442 403.93213 345.79922 403.59277 346.59375 403.21875 z M 352.78125 398.59375 C 352.85642 398.55476 352.92548 398.50882 353 398.46875 C 352.99633 398.45935 353.00904 398.44654 353 398.4375 C 352.93299 398.37048 352.84827 398.48301 352.78125 398.59375 z M 362.21875 420.5625 C 362.08347 420.54551 361.94772 420.51756 361.8125 420.5 C 361.70803 420.74628 361.59383 421.00379 361.4375 421.21875 C 361.14347 421.62304 360.81392 421.97947 360.46875 422.34375 C 361.25023 421.85703 361.90806 421.34121 362.21875 420.5625 z M 355.90625 420.875 C 355.59219 421.18737 355.28536 421.50258 354.96875 421.8125 C 353.45557 422.1479 351.95357 422.49344 350.4375 422.8125 C 350.74886 422.49829 351.07741 422.20235 351.375 421.875 C 351.41007 421.83642 351.43466 421.78948 351.46875 421.75 C 350.35156 421.88812 349.20391 422.00247 348.09375 422.1875 C 347.7584 422.24339 347.42742 422.30996 347.09375 422.375 C 346.89294 422.67468 346.59919 423.13062 346.3125 423.5625 C 345.50144 423.68862 344.66448 423.791 343.875 423.65625 L 343.875 426.09375 L 343.875 427.125 C 343.08087 428.23471 342.56098 429.1029 342.25 430.96875 C 342.22479 431.12003 342.45405 430.76469 342.5625 430.65625 L 342.90625 430.3125 L 343.875 429.375 C 343.87871 429.47774 343.85806 429.58586 343.875 429.6875 C 343.93457 430.0449 344.5313 430.8646 344.84375 430.96875 C 344.98925 431.01725 345.04653 430.71665 345.1875 430.65625 C 345.59188 430.48294 345.98541 430.28755 346.40625 430.15625 C 346.64969 429.99619 346.90101 429.83683 347.125 429.6875 C 347.40003 429.50415 347.52219 429.40086 347.75 429.25 C 347.54804 429.4863 347.33637 429.7498 347.125 430 C 347.68772 429.91343 348.27489 430.0586 348.84375 430.0625 C 346.81135 431.49646 347.84372 430.85774 349.28125 430 C 349.14597 430.02148 349.01246 430.06225 348.875 430.0625 C 349.39875 429.69309 350.36208 428.99528 351.53125 428.1875 C 352.00854 427.69456 352.47335 427.18887 353 426.75 C 359.03785 421.71846 351.38725 428.74171 357.53125 423.15625 C 357.81777 422.89578 358.13267 422.64996 358.40625 422.375 C 358.80149 422.20068 359.19804 422.03486 359.5 421.875 C 360.03119 421.59378 360.8213 421.07168 361.65625 420.53125 C 360.93781 420.64931 360.21726 420.74989 359.5 420.875 C 359.28132 420.91314 359.06203 420.95967 358.84375 421 C 358.86749 420.71613 358.91173 420.25 358.53125 420.25 C 358.37789 420.25 358.32467 420.4939 358.1875 420.5625 C 358.0905 420.611 357.97788 420.5282 357.875 420.5625 C 357.64496 420.63918 357.45794 420.8351 357.21875 420.875 C 356.79087 420.9463 356.33499 420.809 355.90625 420.875 z M 351.53125 428.1875 C 351.47467 428.24594 351.43247 428.31753 351.375 428.375 L 350.375 429.34375 C 350.34279 429.37596 350.2947 429.43413 350.25 429.46875 C 350.40251 429.41162 350.31798 429.52474 349.9375 429.84375 C 349.79977 429.88302 349.67068 429.93559 349.53125 429.96875 C 349.37501 430.09445 349.27156 430.20556 349.375 430.28125 C 348.54439 430.93314 347.09083 432.01802 344.625 433.8125 C 344.58683 434.05564 344.57152 434.3209 344.53125 434.5625 C 344.51345 434.66947 344.53125 434.76655 344.53125 434.875 C 344.53125 434.98344 344.43825 435.27455 344.53125 435.21875 C 345.12668 434.86149 345.56374 434.26833 346.15625 433.90625 C 347.5225 433.07132 348.94288 432.34106 350.375 431.625 C 351.29981 431.16259 352.24888 430.71543 353.1875 430.28125 C 354.18723 430.20905 355.18825 430.11246 356.1875 430.03125 C 356.17617 429.79976 356.17738 429.56161 356.25 429.34375 C 356.30416 429.18128 356.36225 429.02798 356.4375 428.875 C 356.97846 428.6569 357.52238 428.43832 358.03125 428.25 L 355.5625 427.59375 C 355.5625 427.59375 356.62093 426.99572 357.96875 426.21875 C 358.44556 425.29008 358.9218 424.36729 359.5 423.5 C 359.76938 423.09592 360.10246 422.72907 360.4375 422.375 C 360.03017 422.62761 359.57879 422.86372 359.15625 423.15625 C 357.35085 424.40615 355.43446 425.50599 353.625 426.75 C 352.22554 427.71213 352.44454 427.55652 351.53125 428.1875 z M 356.1875 430.03125 C 356.20292 430.34633 356.25 430.65618 356.25 430.96875 L 356.25 431.375 C 356.81943 430.88274 357.41371 430.38875 358.0625 429.875 C 357.43816 429.93176 356.8124 429.98046 356.1875 430.03125 z M 358.0625 429.875 C 358.39706 429.84458 358.72817 429.8138 359.0625 429.78125 C 358.80139 430.03491 358.7231 430.15661 358.5625 430.625 C 358.95045 430.3139 359.33369 429.98897 359.75 429.71875 C 360.36561 429.65577 360.97924 429.60354 361.59375 429.53125 C 360.55224 430.01424 359.60443 430.43136 358.5 430.96875 C 358.50689 431.07099 358.49959 431.16388 358.4375 431.21875 C 358.79227 431.02843 359.14299 430.84051 359.5 430.65625 C 360.07866 430.35759 361.048 429.91262 362.15625 429.4375 C 362.20769 429.43117 362.26107 429.4439 362.3125 429.4375 L 359.65625 428.6875 C 359.11409 429.0769 358.58224 429.46344 358.0625 429.875 z M 358.5 430.96875 C 358.49397 430.87929 358.48966 430.78102 358.53125 430.65625 C 358.25486 430.87808 357.97073 431.06907 357.6875 431.28125 C 357.73413 431.28633 357.79764 431.30961 357.84375 431.3125 C 357.64517 431.41076 357.44528 431.49543 357.25 431.59375 C 357.24617 431.60399 357.19421 431.64136 357.21875 431.625 C 356.89922 431.78606 356.55612 431.934 356.25 432.09375 L 356.25 431.375 C 356.03238 431.56313 355.7948 431.75879 355.59375 431.9375 C 355.20771 432.28065 354.79268 432.70367 354.375 433.125 C 354.11777 433.27544 353.85168 433.41894 353.625 433.5625 C 352.12239 434.51416 350.88616 435.85715 349.40625 436.84375 C 348.63583 437.35736 346.97484 437.45658 346.46875 438.46875 C 346.22626 438.95373 346.46875 439.55153 346.46875 440.09375 C 346.46875 440.63598 346.37965 441.18391 346.46875 441.71875 C 346.57191 442.33772 348.14016 442.09544 348.75 442.03125 C 350.16853 441.88193 351.66082 441.86603 353 441.375 C 357.09346 439.87407 359.75694 437.4344 363.40625 435.21875 C 363.86113 434.94257 364.3316 434.67008 364.8125 434.4375 C 364.95034 434.33735 365.14171 434.24084 365.03125 434.21875 C 364.39322 434.09114 363.71317 434.21875 363.0625 434.21875 L 362.4375 434.21875 C 362.22061 434.21875 361.98263 434.13825 361.78125 434.21875 C 361.41822 434.36396 361.08657 434.63074 360.78125 434.875 C 360.64312 434.98551 360.5315 435.12385 360.40625 435.25 C 360.54815 434.52888 360.45684 434.56283 362.09375 433.5625 C 363.45999 432.72757 364.84558 431.95428 366.3125 431.3125 C 366.6928 431.14612 367.08419 430.96904 367.46875 430.8125 L 366.65625 430.59375 C 366.18632 430.85033 366.03353 430.93625 365.34375 431.3125 C 364.36357 431.84715 363.41062 432.39012 362.4375 432.9375 C 361.67547 433.36614 360.9238 433.80009 360.15625 434.21875 C 359.73049 434.45098 359.27753 434.65811 358.84375 434.875 C 358.62686 434.98344 358.42275 435.15994 358.1875 435.21875 C 357.97709 435.27135 357.74814 435.21875 357.53125 435.21875 C 356.95034 435.21875 356.56382 435.34705 356.25 434.5625 C 356.12918 434.26044 356.25 433.88784 356.25 433.5625 L 356.25 432.46875 C 356.93503 432.04002 357.63144 431.63373 358.34375 431.25 C 358.25072 431.27758 358.10522 431.3125 357.875 431.3125 C 358.09072 431.20583 358.28197 431.07484 358.5 430.96875 z M 364.8125 434.4375 C 364.76268 434.4737 364.71009 434.52862 364.6875 434.5625 C 364.55299 434.76427 364.4517 434.98871 364.375 435.21875 C 364.36277 435.25543 364.34844 435.34039 364.34375 435.4375 L 370.1875 433 C 371.74101 432.03614 371.22797 432.46114 372.0625 432.0625 L 369.0625 431.25 C 368.65123 431.868 368.22116 432.50694 367.625 432.9375 C 366.75837 433.5634 365.77855 433.97028 364.8125 434.4375 z M 357.25 431.59375 C 357.39345 431.49707 357.51758 431.38474 357.65625 431.28125 C 357.61187 431.27878 357.57042 431.29291 357.53125 431.3125 C 357.42046 431.36791 357.26609 431.55076 357.25 431.59375 z M 344.625 433.8125 C 344.673 433.50673 344.7356 433.22592 344.84375 432.9375 C 344.926 432.71818 345.04933 432.55146 345.15625 432.40625 C 344.37431 433.34434 343.63967 434.18158 342.96875 434.96875 C 343.37627 434.69671 343.86829 434.3884 344.53125 433.90625 C 344.58065 433.87032 344.57635 433.8479 344.625 433.8125 z M 342.96875 434.96875 C 339.77171 437.10293 343.49186 433.63314 339.96875 437.15625 C 339.75186 437.37314 339.44967 437.53816 339.3125 437.8125 C 339.264 437.9095 339.5478 437.8125 339.65625 437.8125 C 339.87314 437.8125 340.13601 437.93857 340.3125 437.8125 C 340.93648 437.3668 341.42805 436.76063 341.9375 436.1875 C 342.23081 435.85752 342.61031 435.38931 342.96875 434.96875 z M 349.53125 429.96875 C 349.72465 429.81315 349.96738 429.66074 350.1875 429.5 C 350.01691 429.57467 349.66669 429.77002 349.28125 430 C 349.32217 429.9935 349.36558 430.00904 349.40625 430 C 349.44869 429.99057 349.48898 429.9788 349.53125 429.96875 z M 347.125 430 C 346.88195 430.03739 346.64147 430.08286 346.40625 430.15625 C 345.54809 430.72048 344.62556 431.31204 343.875 431.9375 C 343.63937 432.13386 343.43564 432.37686 343.21875 432.59375 C 343.11031 432.70219 342.90625 432.78414 342.90625 432.9375 C 342.90625 433.04595 343.11031 432.9375 343.21875 432.9375 C 343.43564 432.9375 343.68101 433.0345 343.875 432.9375 C 344.05872 432.8456 345.22658 431.58592 345.5 431.3125 C 345.60845 431.20406 345.84375 430.81539 345.84375 430.96875 C 345.84375 431.41419 345.70014 431.67777 345.53125 431.90625 C 346.0783 431.25022 346.59987 430.62161 347.125 430 z M 329.28125 419.0625 C 329.41672 416.57705 330.50193 415.57111 332.375 413.25 C 332.30373 413.30622 332.22798 413.34886 332.15625 413.40625 C 331.31795 414.07689 330.6901 414.98885 329.875 415.6875 C 329.16671 416.29461 328.36137 416.73977 327.625 417.3125 C 327.37758 417.50494 327.22101 417.60623 327.125 417.6875 C 328.11163 415.78363 328.21403 414.8736 329.875 412.4375 C 330.05053 412.18005 330.24758 411.9107 330.4375 411.65625 C 329.20163 412.58748 328.03217 413.58444 326.96875 414.71875 C 324.75648 417.0785 325 416.47519 325 418.625 C 325 419.16529 324.78837 419.62856 325.34375 419.90625 C 325.89244 420.1806 326.3159 419.15489 326.625 418.625 C 326.77346 418.37051 326.84933 418.19082 326.96875 417.96875 C 326.96457 418.043 326.96875 418.13752 326.96875 418.28125 C 326.96875 418.3897 326.92025 418.528 326.96875 418.625 C 327.29636 419.28022 328.52324 419.18325 329.28125 419.0625 z M 330.4375 411.65625 C 332.21872 410.31409 334.12751 409.09185 335.90625 407.75 C 334.77774 408.21496 333.65049 408.7016 332.53125 409.1875 C 331.78439 410.00251 331.07317 410.8046 330.4375 411.65625 z M 323.78125 413.5625 C 323.39733 413.78915 323.00712 414.0333 322.59375 414.28125 C 322.47957 414.69354 322.44764 415.07263 322.71875 415.34375 C 323.16588 415.79088 323.45709 414.2944 323.71875 413.71875 C 323.74869 413.65288 323.75419 413.62427 323.78125 413.5625 z M 322.59375 414.28125 C 322.70793 413.86896 322.92278 413.45079 323.0625 413.09375 C 323.55428 411.83699 324.20324 410.62814 324.84375 409.4375 C 323.18042 410.99842 321.52248 412.66502 320.125 414.0625 L 316.875 417.3125 L 316.21875 417.96875 C 316.00186 418.18564 315.73264 418.36978 315.5625 418.625 C 315.5023 418.7152 315.4695 418.9933 315.5625 418.9375 C 316.15793 418.58024 316.6153 418.01839 317.1875 417.625 C 318.30284 416.85821 320.55243 415.50567 322.59375 414.28125 z M 324.84375 409.4375 C 324.95295 409.33502 325.04687 409.22624 325.15625 409.125 C 325.24757 408.90543 325.36696 408.66868 325.46875 408.4375 C 325.42786 408.44951 325.38473 408.45685 325.34375 408.46875 C 325.17452 408.79304 325.01719 409.11509 324.84375 409.4375 z M 309.09375 419.375 C 308.96951 419.66487 308.84963 419.95109 308.75 420.25 C 308.82766 420.13387 309.02839 419.76416 309.0625 419.59375 C 309.08174 419.49757 309.07998 419.45432 309.09375 419.375 z M 303.53125 410.5 C 303.51863 409.19339 303.43477 407.86508 303.53125 406.5625 C 303.62591 405.28456 303.71074 404.44436 303.78125 403.71875 C 303.51175 404.0896 303.09245 404.62849 302.875 404.9375 C 302.42497 405.57703 302.01692 406.24824 301.59375 406.90625 L 301.59375 410.15625 L 301.59375 413.40625 C 301.59375 413.5147 301.4853 413.71875 301.59375 413.71875 C 302.42195 413.71875 303.12985 412.03006 303.21875 411.78125 C 303.36604 411.36883 303.45474 410.93259 303.53125 410.5 z M 301.59375 406.90625 L 301.59375 403.96875 C 301.3076 404.70455 301.16968 405.49543 300.9375 406.25 C 300.7358 406.90554 300.46967 407.52802 300.28125 408.1875 C 300.25145 408.29177 300.28125 408.42281 300.28125 408.53125 C 300.28125 408.6397 300.21745 408.93145 300.28125 408.84375 C 300.74121 408.21131 301.17058 407.56426 301.59375 406.90625 z M 309.125 396.875 C 309.1375 396.69027 309.14963 396.47336 309.15625 396.3125 C 309.11322 396.37429 309.1065 396.43719 309.0625 396.5 C 309.05498 396.12905 309.02114 395.94432 308.28125 397.46875 C 308.27226 397.52497 308.26001 397.59538 308.25 397.65625 C 308.5347 397.26075 308.80437 396.89944 309.0625 396.53125 C 309.06625 396.67013 309.06779 396.83061 309.125 396.875 z M 296.71875 407.125 C 296.72158 407.59926 296.71875 407.84508 296.71875 408.53125 L 296.71875 412.09375 L 296.71875 412.75 C 296.91658 411.66192 296.99402 410.54918 297.34375 409.5 C 297.8166 408.08143 298.47132 406.71847 299.0625 405.34375 C 298.93198 405.43548 298.78642 405.50155 298.65625 405.59375 C 298.33817 405.81905 297.51827 406.49606 296.71875 407.125 z M 296.71875 412.75 C 296.69935 412.8567 296.6103 413.09375 296.71875 413.09375 C 296.82719 413.09375 296.71875 412.85845 296.71875 412.75 z M 284.34375 419.90625 C 284.29965 420.00535 284.34375 420.35844 284.34375 420.25 L 284.34375 419.90625 z M 280.78125 418.5625 C 280.68309 418.9137 280.59247 419.28638 280.4375 419.90625 C 280.51394 419.73442 280.71919 419.18421 280.75 418.9375 C 280.77248 418.75764 280.76349 418.71484 280.78125 418.5625 z M 280.875 417.84375 C 281.12173 415.18061 280.16183 419.82862 280.875 417.84375 z M 280.4375 408.3125 C 280.42474 408.15308 280.40182 408.16034 280.40625 408.40625 C 280.41196 408.37462 280.43167 408.34445 280.4375 408.3125 z M 280.40625 408.40625 C 280.03 410.49155 279.90357 411.99148 279.46875 415.6875 C 278.65336 422.6183 278.8125 419.35189 278.8125 425.4375 L 278.8125 426.90625 C 278.81147 425.1805 278.87986 424.99717 279.46875 420.875 C 279.76375 418.80999 280.27333 416.79825 280.4375 414.71875 C 280.4375 410.39045 280.4148 408.88084 280.40625 408.40625 z M 283.875 361.21875 C 283.92505 361.47927 283.97491 361.74083 284.03125 362 C 284.3386 363.41381 284.70492 364.80233 285 366.21875 C 285.24729 367.40571 285.54648 368.60503 285.65625 369.8125 C 285.87225 372.18849 285.49755 374.58825 285.65625 376.96875 C 285.79407 379.036 286.17779 381.087 286.28125 383.15625 C 286.31278 383.78689 286.32258 384.39945 286.3125 385.03125 C 286.24245 385.45385 286.17514 385.88215 286.09375 386.3125 C 284.8443 387.24626 283.63779 388.30015 283.03125 389 C 282.45864 389.66071 282.18378 390.52214 281.75 391.28125 C 281.56559 391.60397 281.43292 391.84049 281.28125 392.09375 C 281.20868 392.02032 281.06095 391.90032 280.9375 391.78125 C 281.11853 389.9919 281.18312 388.19126 281.40625 386.40625 C 282.41486 378.33738 282.45443 378.98546 282.375 380.21875 C 282.42995 379.53737 282.63114 377.41634 282.8125 375.375 C 283.44405 373.54338 284.08071 371.65242 284.34375 370.46875 C 284.46137 369.93944 284.46137 369.37306 284.34375 368.84375 C 284.23854 368.37032 284.03043 367.18831 283.6875 367.53125 C 283.57248 367.64627 283.51485 367.78332 283.5 367.9375 C 283.45546 368.40004 283.752 369.01628 283.6875 369.5 C 283.56409 370.42555 283.37516 371.32814 283.09375 372.21875 C 283.22038 370.89116 283.35793 369.44186 283.5 367.9375 C 283.71152 365.69768 283.90393 363.3714 283.875 361.21875 z M 282.375 380.21875 C 282.25156 381.74935 282.31744 381.11245 282.375 380.21875 z M 322.53125 378.40625 C 322.45967 378.93724 322.41762 379.4693 322.34375 380 C 322.14803 380.47725 321.94571 380.9797 321.75 381.53125 C 321.41456 382.47658 321.19069 383.4341 320.9375 384.40625 C 321.26379 384.14729 321.60016 383.87404 321.90625 383.625 C 321.79189 384.88321 321.68492 386.13789 321.4375 387.375 C 321.35903 387.76738 321.23069 388.14537 321.125 388.53125 L 319.9375 387.46875 C 319.29478 388.98145 318.34685 390.37228 317.84375 391.9375 C 317.55675 392.83039 317.49924 393.78011 317.40625 394.71875 C 317.15915 394.83009 316.92328 394.94946 316.625 395.09375 C 317.49923 392.77341 317.89356 392.01805 318.1875 388.34375 C 318.23688 387.72654 318.22981 387.11963 318.21875 386.5 C 318.34463 386.40685 318.4691 386.31352 318.59375 386.21875 L 318.21875 385.90625 C 318.20846 385.51331 318.19149 385.11144 318.1875 384.71875 C 318.40324 384.33534 318.70076 383.87201 319.15625 383.15625 C 320.07681 381.70966 321.0344 380.25452 322.09375 378.90625 C 322.11236 378.88256 322.47592 378.47172 322.53125 378.40625 z M 318.59375 386.21875 L 319.9375 387.46875 C 319.99653 387.32982 320.07198 387.20388 320.125 387.0625 C 320.44753 386.20242 320.70565 385.29649 320.9375 384.40625 C 320.27275 384.93384 319.59523 385.45651 318.8125 386.0625 C 318.74149 386.11748 318.66524 386.1644 318.59375 386.21875 z M 326.5625 379.40625 C 326.5264 379.4827 326.50228 379.57003 326.46875 379.65625 C 326.48658 379.71206 326.47446 380.00382 326.4375 380.46875 C 326.10624 381.49198 326.28126 380.29399 326.40625 379.8125 C 325.73878 381.72891 325.59817 385.50167 325.34375 386.40625 C 325.0214 387.55239 324.49948 388.63397 324 389.71875 C 324.40107 388.52131 324.75936 387.30006 325 386.0625 C 325.26908 384.67864 324.73376 383.22817 325 381.84375 C 325.0904 381.37364 325.2811 380.94174 325.46875 380.5 C 325.82066 380.16 326.19751 379.77959 326.5625 379.40625 z M 326.40625 379.8125 C 326.42641 379.75461 326.44761 379.7106 326.46875 379.65625 C 326.45331 379.6079 326.43972 379.68356 326.40625 379.8125 z M 324.5625 381.34375 C 324.12923 383.02148 323.68488 384.70191 323.375 386.40625 C 323.15084 387.63914 323.03981 388.87821 322.90625 390.125 L 322.625 389.875 C 322.65715 389.69791 322.68656 389.52079 322.71875 389.34375 C 323.09728 387.2618 323.64355 384.44904 324.1875 381.6875 C 324.31179 381.57572 324.43864 381.45746 324.5625 381.34375 z M 280.0625 386.8125 C 280.0734 387.4347 280.09492 388.06576 280.125 388.6875 C 280.17871 389.79746 280.2324 390.58953 280.28125 391.4375 C 279.72396 391.96352 279.65587 392.93875 279.46875 393.5625 C 279.31641 394.07027 279.13555 394.55936 278.96875 395.0625 C 279.23335 392.87644 279.52131 390.66306 279.78125 388.6875 C 279.85226 388.1478 279.90376 387.60308 279.96875 387.0625 C 279.99275 386.97708 280.03865 386.89795 280.0625 386.8125 z M 322.59375 391.9375 C 322.44033 392.15581 322.30177 392.377 322.15625 392.59375 C 322.17298 392.49911 322.20195 392.40713 322.21875 392.3125 C 322.3487 392.1935 322.4636 392.05628 322.59375 391.9375 z M 278.15625 395.09375 C 278.14006 395.77547 278.13621 396.47351 278.15625 397.15625 C 278.12951 397.27421 278.13764 397.40633 278.15625 397.53125 C 278.16075 397.68866 278.18387 397.84262 278.1875 398 C 278.18154 398.04002 278.17159 398.08666 278.15625 398.125 C 278.04233 398.40979 277.62083 398.49932 277.5 398.78125 C 277.68655 397.55003 277.92991 396.31845 278.15625 395.09375 z M 316.84375 397.40625 C 316.42524 398.6228 315.8744 399.78365 315.5625 401.03125 C 315.21656 402.41503 315.172 403.87429 314.9375 405.28125 C 314.73818 406.4772 314.41514 407.63871 314.28125 408.84375 C 314.24045 409.21109 314.25424 409.59706 314.28125 409.96875 C 314.16563 410.02828 314.03931 410.0748 313.9375 410.15625 C 311.95356 411.7434 312.18194 411.6714 311.65625 412.75 L 311.65625 413.71875 L 311.65625 414.375 C 311.65625 414.48345 311.55925 414.76725 311.65625 414.71875 C 312.3557 414.36903 312.96382 413.82384 313.625 413.40625 C 314.77738 412.67843 315.50449 412.21469 316.15625 411.8125 C 315.29672 412.42257 314.48008 413.10119 313.625 413.71875 C 312.86873 414.26494 312.08012 414.77102 311.34375 415.34375 C 311.10163 415.53206 310.94271 416.17015 310.6875 416 C 310.5444 415.9046 310.44447 415.80337 310.375 415.6875 C 310.74664 414.73184 311.30227 413.84697 311.625 412.875 C 311.53845 413.04777 311.48123 413.16566 311.34375 413.40625 C 311.31433 413.45768 310.64742 414.43504 310.3125 414.9375 C 310.4931 414.18416 311.23636 413.38524 311.34375 413.09375 C 311.45747 412.78508 311.55812 412.47005 311.65625 412.15625 L 311.65625 412.75 C 311.73509 412.49379 311.74447 412.24068 311.71875 411.96875 C 312.0631 410.83614 312.34132 409.67285 312.65625 408.53125 C 313.74383 404.58877 314.1802 402.51851 315.375 398.75 C 315.83348 398.37759 316.31817 397.92849 316.84375 397.40625 z M 279.78125 397.46875 C 279.78125 397.79408 280.10658 398.4375 279.78125 398.4375 C 279.45592 398.4375 279.72125 397.78851 279.78125 397.46875 z M 284.21875 397.46875 C 284.15535 397.89053 282.49449 402.47343 283.375 399.4375 C 284.02899 397.75837 284.24204 397.31384 284.21875 397.46875 z M 282.65625 397.9375 C 282.54941 398.13616 282.4975 398.21291 282.375 398.4375 C 282.10337 398.93548 281.80023 399.41117 281.46875 399.875 C 281.46327 399.67649 281.44345 399.47978 281.4375 399.28125 C 281.88262 398.79398 282.26145 398.39256 282.65625 397.9375 z M 277.15625 398.21875 C 277.16579 398.51004 277.1875 398.80293 277.1875 399.09375 L 277.1875 400.40625 C 277.04914 400.8213 276.77784 401.16566 276.59375 401.5625 C 276.77933 400.44763 276.92729 399.32526 277.15625 398.21875 z M 281.25 399.5 C 281.28774 399.6601 281.33403 399.81644 281.375 400 C 280.90962 400.64988 280.45139 401.30596 280.125 402.03125 C 279.5482 403.31305 280.06943 405.28125 278.8125 405.28125 C 278.27578 405.28125 278.5 404.17117 278.5 403.3125 C 278.5 402.95665 278.47656 402.60611 278.46875 402.25 C 279.31418 401.52986 280.30044 400.53017 281.25 399.5 z M 353.4375 400 C 353.5041 400.00601 353.55971 400.02985 353.625 400.0625 C 354.03652 400.26826 352.98158 400.70592 352.65625 401.03125 C 351.16404 402.52346 353.00545 400.79279 350.0625 403 C 349.42596 403.4774 348.85505 404.05441 348.21875 404.53125 C 347.59212 404.81706 346.9673 405.1137 346.34375 405.40625 C 346.34733 405.37502 346.34033 405.31106 346.34375 405.28125 C 347.93054 403.37832 347.40667 403.57669 349 402.09375 C 350.00319 401.63192 350.98823 401.1614 352 400.71875 C 352.46815 400.51393 352.97129 399.95796 353.4375 400 z M 281.46875 400.40625 C 281.56754 400.87697 281.6613 401.45768 281.78125 402.15625 C 281.65641 402.65211 281.52123 403.158 281.40625 403.65625 C 281.32406 404.01242 281.29085 404.18231 281.21875 404.5 C 281.28307 403.87301 281.33165 403.47683 281.40625 402.65625 C 281.47422 401.90856 281.48283 401.15766 281.46875 400.40625 z M 290.84375 403.625 L 290.84375 406.90625 L 290.84375 411.78125 C 290.84375 412.43192 291.0225 413.09311 290.84375 413.71875 C 290.72972 414.11784 290.56676 414.50538 290.375 414.875 C 290.09939 412.97365 289.76153 411.09816 289.5625 409.1875 C 289.50788 408.66312 289.44859 408.11921 289.40625 407.59375 C 289.56205 407.14749 289.71493 406.69463 289.875 406.25 C 290.2066 405.37578 290.51901 404.50192 290.84375 403.625 z M 347.75 418.84375 C 347.54409 418.98326 347.31836 419.09289 347.125 419.25 C 346.46765 419.78409 346.0666 420.58919 345.5 421.21875 C 345.08962 421.67473 344.65252 422.06622 344.21875 422.5 C 344.14501 422.57374 344.00002 422.66515 343.875 422.75 C 343.86614 421.47894 343.68183 420.19311 343.875 418.9375 C 345.17314 418.92253 346.45997 418.91132 347.75 418.84375 z M 362.375 419.5625 C 362.39934 419.54946 362.4375 419.55541 362.4375 419.59375 C 362.4375 419.76911 362.40074 419.90847 362.375 420.0625 C 362.20252 420.17215 362.04638 420.26442 361.875 420.375 C 361.9436 420.21547 362.00497 420.05423 362.09375 419.90625 C 362.15292 419.80762 362.30199 419.60161 362.375 419.5625 z "
         style="fill:none;stroke:#225500;stroke-width:1px;stroke-linecap:butt;stroke-linejoin:miter;stroke-opacity:1;filter:url(#filter3965)" />
      <g
         transform="translate(9.2018357,51.53028)"
         id="g3978">
        <text
           xml:space="preserve"
           style="font-size:40px;font-style:normal;font-weight:normal;line-height:125%;letter-spacing:0px;word-spacing:0px;fill:#000000;fill-opacity:1;stroke:none;font-family:Sans"
           id="text3969"
           sodipodi:linespacing="125%"><textPath
             xlink:href="#path3973"
             id="textPath3975"><tspan
   style="font-weight:bold;-inkscape-font-specification:Sans Bold"
   id="tspan3971">     Imagen prueba Hackmitin</tspan></textPath></text>
        <path
           style="fill:none;stroke:none"
           d="m 123.3046,549.94195 c 0,0 29.12305,-261.85625 189.55781,-259.49176 160.43476,2.36448 180.35598,252.13029 180.35598,252.13029"
           id="path3973"
           inkscape:connector-curvature="0"
           sodipodi:nodetypes="czc" />
      </g>
    </g>
  </g>
</svg>
